<svg version="1.0" xmlns="http://www.w3.org/2000/svg"
 width="387.000000pt" height="381.000000pt" viewBox="0 0 387.000000 381.000000"
 preserveAspectRatio="xMidYMid meet">

<g transform="translate(0.000000,381.000000) scale(0.100000,-0.100000)"
fill="#000000" stroke="none">
<path class="restart" d="M2247 3543 c-9 -2 -26 -21 -36 -41 -29 -58 -78 -220 -92 -305 l-12
-79 -31 6 c-166 31 -385 26 -567 -14 -568 -124 -1001 -561 -1131 -1141 -31
-140 -33 -455 -4 -589 66 -304 194 -539 410 -756 216 -215 439 -337 748 -406
89 -20 130 -23 298 -23 211 1 300 14 467 70 295 99 579 315 751 570 45 68 146
255 140 260 -2 2 -149 53 -328 115 -179 62 -355 122 -392 135 l-66 23 -36 -53
c-78 -118 -207 -215 -341 -258 -58 -18 -92 -22 -205 -22 -120 1 -142 4 -202
27 -191 73 -325 207 -394 395 -27 72 -29 88 -29 218 1 126 3 147 27 207 73
193 218 334 408 399 101 34 270 38 375 7 l80 -23 7 -65 c35 -309 99 -539 156
-561 105 -40 570 222 966 545 115 94 331 303 380 369 l28 37 -28 38 c-47 62
-263 273 -377 368 -287 236 -673 476 -861 533 -69 21 -77 22 -109 14z"/>
</g>
</svg>
